PathFileType	4	(X/Y/Z)	5_1_4_p0_0-269.trc
DataRate	CameraRate	NumFrames	NumMarkers	Units	OrigDataRate	OrigDataStartFrame	OrigNumFrames
59.0	59.0	5	27	m	59.0	67	270
Frame#	Time	RHip			RKnee			RAnkle			RBigToe			RSmallToe			RHeel			LHip			LKnee			LAnkle			LBigToe			LSmallToe			LHeel			Neck			Head			Nose			RShoulder			RElbow			RWrist			RThumb			RIndex			RPinky			LShoulder			LElbow			LWrist			LThumb			LIndex			LPinky			
		X1	Y1	Z1	X2	Y2	Z2	X3	Y3	Z3	X4	Y4	Z4	X5	Y5	Z5	X6	Y6	Z6	X7	Y7	Z7	X8	Y8	Z8	X9	Y9	Z9	X10	Y10	Z10	X11	Y11	Z11	X12	Y12	Z12	X13	Y13	Z13	X14	Y14	Z14	X15	Y15	Z15	X16	Y16	Z16	X17	Y17	Z17	X18	Y18	Z18	X19	Y19	Z19	X20	Y20	Z20	X21	Y21	Z21	X22	Y22	Z22	X23	Y23	Z23	X24	Y24	Z24	X25	Y25	Z25	X26	Y26	Z26	X27	Y27	Z27	
67	1.1355932203389831	0.3518762683161811	0.5273410141255492	0.8036030275276551	0.36463619100130723	0.6039118609572909	1.2368242316540186	0.3606986555701095	0.784833433133548	1.6902536575547629	0.36199164362926334	0.4981756660443295	1.645694573601028	0.41254081172788487	0.5882914915601528	1.670549559055287	0.35625942636842806	0.842530173883224	1.738059012939441	0.1439181517601027	0.5073761072658939	0.8216016838711871	0.18040024347940053	0.6111810560424197	1.265847978908979	0.212846607531027	0.7683081958101835	1.6967900970555756	0.231737569886326	0.5253493931542611	1.6740600534724543	0.16983920859949833	0.6022172728009475	1.6962396701023872	0.2168022735667015	0.8309989479036539	1.741453369395179	0.20986042882965555	0.4356398233069048	0.3049283133877444	0.19868667629538247	0.4029969793710028	0.05921466633835835	0.23730346146045103	0.31328599948964886	0.19518077137561007	0.36827154969136405	0.4708955017634543	0.3737547982453033	0.4458052363633308	0.5392432007243353	0.6334636503376151	0.4283852443878676	0.45100592259436234	0.8595954037728212	0.3482381231035623	0.4465706595568	0.978693177679751	0.36062539180102754	0.42205202058322033	0.9839036486384353	0.4236739356059895	0.48116512192984084	0.9866274501286348	0.08313604008524127	0.44415148447735536	0.3896976208260289	0.03924642285153592	0.447232589041753	0.6466175327106398	0.13888964668741702	0.2931415947173348	0.47050252497304995	0.1411220261626616	0.30449998709326465	0.38241367914857133	0.17230538593373373	0.24937614366893665	0.36378097600951764	0.20197221734182402	0.20575122723495462	0.40859843743201535
68	1.152542372881356	0.3519709599695796	0.5271176712619918	0.8034861577959159	0.36824142409502564	0.6071878746823792	1.2331484445926897	0.361920271482609	0.7879159151477908	1.695752024197427	0.36232335240355185	0.49941362306714887	1.6462731518778535	0.41259063085584535	0.5884894382971388	1.6706103814725393	0.35642415993562165	0.8430884019513877	1.7384341069762914	0.14397538009034025	0.5071676979347122	0.8214878348043909	0.18527413622189384	0.6114536891643649	1.2616910174820575	0.2128319761474013	0.7684503335532902	1.6969107761681428	0.23173822832225885	0.5253951269451239	1.6741291064905912	0.16986160126981026	0.6023348614083719	1.6963628257302632	0.2112183083517996	0.8547120794557987	1.7536191483306938	0.20986218066184506	0.43564263517731344	0.30490198466806717	0.19871996042136772	0.4030670377241423	0.05933802510767013	0.23711336236464764	0.3113721864491497	0.19519553175985285	0.3688340125356135	0.4704947618993387	0.3776353360611808	0.4457619075306967	0.5392272920143936	0.6336799457755417	0.435023380820205	0.4643788917144273	0.861053145456672	0.3481614553931557	0.44763124675779564	0.9817500964417658	0.3701414850186074	0.4103599700267687	0.9800772299809419	0.4240132917444094	0.48132962134821844	0.9865605637363841	0.08346007002030002	0.44649119319930153	0.39347111945234675	0.04563197485755614	0.4353120862520713	0.6451419855713272	0.13857623183555487	0.2912710484423332	0.46324526581403225	0.13981225244698106	0.32618677852949307	0.3702941910412287	0.18242431261838374	0.2759457409349546	0.3549748209778417	0.20589366939754059	0.21388728654516148	0.39107329712132016
69	1.1694915254237288	0.35209403679074824	0.527167673817739	0.803747222684163	0.36828764274110787	0.6071820570614206	1.233226139466774	0.3573538390683845	0.7852519653312351	1.6953571586778566	0.36854994749552017	0.49590027820478055	1.6434978361393124	0.4120572740182893	0.5869314156444051	1.6697587629652688	0.3565452299941984	0.8429419586598326	1.738309879015727	0.14399960570080006	0.507013098327757	0.8217364516809404	0.1853149305963474	0.6114595059994234	1.269395267874337	0.2127702942914321	0.7687638421076215	1.6971022340324229	0.23074110235845605	0.5267161603435588	1.679090671871375	0.16983235443747796	0.6021201333540056	1.6964269548208504	0.21117190353451112	0.8550112203370227	1.75414504008796	0.20983838756249065	0.43589975945144094	0.30496859963104606	0.1987195404051399	0.40310583584493864	0.0593161231317007	0.23727417926434818	0.3135606914157446	0.19521775630099542	0.3688566088829356	0.4706520591823838	0.3775743291677315	0.44584017425022987	0.5391802339861065	0.6338720478692633	0.4385058417047684	0.46668127760087746	0.8648121991597332	0.3576088819980434	0.4354362804141388	0.9780005340720856	0.3742380844520401	0.4115099032618085	0.9795944816887981	0.4243727966998355	0.4813846923321385	0.9863889500794464	0.08358335513529616	0.4458220638350768	0.3904489478402975	0.043254516411815304	0.447961558214167	0.6465388603892386	0.13236360370823042	0.30283534933264317	0.45766983428223046	0.14415353744119683	0.3340252950368879	0.3659718355063215	0.1779977072119707	0.2999190195461414	0.3472220641496619	0.19594161669169907	0.2472132050643123	0.3880235290714762
70	1.1864406779661016	0.35210533508448566	0.527093494617752	0.8037846484132884	0.3709206779132472	0.6209965615523074	1.2365471357351467	0.3643190975391325	0.8033844510898455	1.7014080272617822	0.36849712702767695	0.49626769222474315	1.6436353084533841	0.41199644356628007	0.5875148525748091	1.6699497739705813	0.3506985457600527	0.8596780038648679	1.7458953812027633	0.15383465099855387	0.4961463282845716	0.8193500829941721	0.1860412037089474	0.6102525228422173	1.2652850282759804	0.21280142832206464	0.7684651568334183	1.6969497564917873	0.23160697033625913	0.5254110798951737	1.6742171710688285	0.16979420359335035	0.6024275624851143	1.6964638623728792	0.2112334696615917	0.8547824383042012	1.7538625317755183	0.2099243173843088	0.4361676588078229	0.3049592982400595	0.1987447616183584	0.40318230562616436	0.059270440711937135	0.2376293113605902	0.31381008465506427	0.19862172405665626	0.3688880755735675	0.4708166977920877	0.3776164167682699	0.4457543216643585	0.5391304818843684	0.6336128595348534	0.43871512638622756	0.46720626290442424	0.8649862199776538	0.3615295757521746	0.4360577273209717	0.9774822465146538	0.3744456403053959	0.4116538798580675	0.9796181041847033	0.42447443601324664	0.48193413898016	0.9866177189035743	0.08336242850445873	0.4442692345337253	0.38641092506594266	0.04571350944402676	0.4348366180103092	0.6450876296844922	0.13293026644565095	0.30386642372358313	0.45714637508887357	0.1500897203460461	0.33599851000486813	0.35755730410309755	0.19356266895254778	0.2918498515374713	0.3389197926528994	0.19553095816526964	0.2202329987283291	0.3748506590325002
71	1.2033898305084745	0.35281951964601566	0.528922156774643	0.8077164455662363	0.3689411051883516	0.6060980193973217	1.2367910377734548	0.36179515799811957	0.7879878501014902	1.6955915404182011	0.3623403285244722	0.5013492112826697	1.6469917161577237	0.41273639600002243	0.5908929191618872	1.6714656327314956	0.3563205227786645	0.8422568406122724	1.737780431019135	0.15391258053643542	0.49599899686393784	0.8194820796065009	0.18541172084368743	0.611543037119836	1.2694400933824936	0.2128642353228993	0.768710802527156	1.69713615208544	0.23165150918549474	0.5254692477717334	1.6741686227709527	0.16980899579052852	0.6024907351110717	1.6964113896134414	0.2112479630680474	0.8549919396073282	1.7538533495497344	0.20991655480402088	0.43630557966869205	0.30505682349532004	0.19868160180656508	0.4034010354312231	0.05938666216701126	0.2376645966008872	0.31436677392404894	0.19877565754113055	0.370399839316672	0.4842796348266355	0.37337992249003027	0.44577189699224534	0.5391305555105644	0.6335470981182673	0.4425836628618746	0.46840087571664896	0.8648873196621973	0.3671584625954626	0.4231014244695948	0.9742801988560352	0.3829956540408683	0.4010822312003409	0.9796561281534683	0.4245606867922583	0.4817127702662678	0.9865269293357135	0.08746489335908435	0.44600411480207347	0.3858417914891803	0.04952578377037701	0.4358838953362589	0.6447678977559487	0.13269211615024576	0.30413882352111626	0.4495670007936548	0.15021466839947237	0.34910574896965535	0.3505249361154966	0.19853707768475695	0.2949736925671648	0.3338510154607877	0.20631569391194718	0.2611932994941678	0.37273051716402034
